:FULLY-SPECIFIED
:FORCE-ALL-JOINTS-BE-3DOF
:DEGREES
815
root 2.05467 16.6347 22.6506 -1.55174 1.26467 346.717
lfemur -38.4329 0.773168 0.724214
ltibia 20.4495 0 0
lfoot -9.39872 11.0622 0
ltoes 16.0223 0 0
rfemur 1.83615 4.09399 22.2801
rtibia 22.9333 0 0
rfoot -21.0061 -11.5803 0
rtoes -22.2306 0 0
lowerback 0.612273 6.24277 5.55719
upperback -0.191331 8.359 -0.332038
thorax 0.30476 4.18837 -3.37751
lowerneck -5.75164 -1.84619 2.85493
upperneck -0.557421 -2.65742 1.51412
head 0.776734 -1.30502 -0.0692207
lclavicle -1.27961e-013 3.16494e-015 0
lhumerus -53.0339 -7.10577 91.4333
lradius 53.672 0 0
lwrist 19.3428 0 0
lhand -10.2779 4.88868 0
lfingers 7.12502 0 0
lthumb 15.7151 34.2528 0
rclavicle -1.27961e-013 3.16494e-015 0
rhumerus -30.2017 45.8439 -110.301
rradius 67.8952 0 0
rwrist -1.18583 0 0
rhand -9.67252 -24.0753 0
rfingers 7.12502 0 0
rthumb 16.299 -773.41 0
816
root 2.04291 16.6505 22.7609 1.69261 0.253712 349.853
lfemur -38.2752 0.225541 1.28001
ltibia 19.6242 0 0
lfoot -8.91052 10.7619 0
ltoes 15.8438 0 0
rfemur 2.22101 4.84157 22.2352
rtibia 21.9972 0 0
rfoot -21.4438 -11.2953 0
rtoes -22.7306 0 0
lowerback 0.580621 6.26775 5.72222
upperback -0.175302 8.39413 -0.254898
thorax 0.351985 4.20521 -3.38375
lowerneck -5.76616 -1.71745 2.95038
upperneck -0.547696 -2.49212 1.43531
head 0.773458 -1.22404 -0.105312
lclavicle -1.29728e-013 1.1849e-015 0
lhumerus -53.0469 -7.02225 91.3904
lradius 53.3498 0 0
lwrist 19.3677 0 0
lhand -10.0053 5.11388 0
lfingers 7.12502 0 0
lthumb 15.978 34.4658 0
rclavicle -1.29728e-013 1.1849e-015 0
rhumerus -30.2836 45.6431 -110.39
rradius 67.6365 0 0
rwrist -1.38209 0 0
rhand -9.63061 -24.1999 0
rfingers 7.12502 0 0
rthumb 16.3393 -773.531 0
817
root 2.03115 16.6664 22.8712 4.93696 -0.75725 352.989
lfemur -38.1174 -0.322086 1.83581
ltibia 18.7988 0 0
lfoot -8.42232 10.4617 0
ltoes 15.6653 0 0
rfemur 2.60588 5.58915 22.1904
rtibia 21.0611 0 0
rfoot -21.8814 -11.0103 0
rtoes -23.2307 0 0
lowerback 0.548969 6.29273 5.88725
upperback -0.159273 8.42926 -0.177758
thorax 0.39921 4.22205 -3.38998
lowerneck -5.78068 -1.58872 3.04583
upperneck -0.537971 -2.32681 1.3565
head 0.770183 -1.14307 -0.141404
lclavicle -1.31496e-013 -7.95139e-016 0
lhumerus -53.0599 -6.93873 91.3475
lradius 53.0275 0 0
lwrist 19.3926 0 0
lhand -9.73271 5.33909 0
lfingers 7.12502 0 0
lthumb 16.241 34.6788 0
rclavicle -1.31496e-013 -7.95139e-016 0
rhumerus -30.3656 45.4422 -110.478
rradius 67.3777 0 0
rwrist -1.57836 0 0
rhand -9.5887 -24.3245 0
rfingers 7.12502 0 0
rthumb 16.3797 -773.653 0
818
root 2.07051 16.6636 23.0048 4.56401 -0.430894 353.131
lfemur -37.6227 -0.15499 1.41315
ltibia 19.1604 0 0
lfoot -8.43052 9.789 0
ltoes 15.7469 0 0
rfemur 1.25641 5.21104 22.3011
rtibia 21.3705 0 0
rfoot -21.4709 -10.5203 0
rtoes -23.4103 0 0
lowerback 0.825877 6.14528 5.66019
upperback -0.062072 8.21557 -0.210443
thorax 0.33309 4.11537 -3.29042
lowerneck -5.81192 -1.61333 3.03644
upperneck -0.413058 -2.36677 1.4068
head 0.81806 -1.15884 -0.126667
lclavicle -1.27571e-013 -1.26287e-015 0
lhumerus -52.6867 -7.30796 91.1294
lradius 53.1786 0 0
lwrist 19.4767 0 0
lhand -9.32463 5.31789 0
lfingers 7.12502 0 0
lthumb 16.6314 34.5976 0
rclavicle -1.27571e-013 -1.26287e-015 0
rhumerus -30.7504 44.3736 -109.221
rradius 67.0873 0 0
rwrist -1.47064 0 0
rhand -9.35212 -24.3953 0
rfingers 7.12502 0 0
rthumb 16.6068 -773.697 0
819
root 2.10986 16.6607 23.1384 4.19105 -0.104538 353.272
lfemur -37.1281 0.0121068 0.990492
ltibia 19.5221 0 0
lfoot -8.43873 9.11631 0
ltoes 15.8286 0 0
rfemur -0.0930565 4.83292 22.4117
rtibia 21.6799 0 0
rfoot -21.0605 -10.0303 0
rtoes -23.5899 0 0
lowerback 1.10279 5.99783 5.43313
upperback 0.0351291 8.00189 -0.243127
thorax 0.266971 4.0087 -3.19085
lowerneck -5.84317 -1.63794 3.02705
upperneck -0.288144 -2.40672 1.4571
head 0.865936 -1.17462 -0.111931
lclavicle -1.23646e-013 -1.7306e-015 0
lhumerus -52.3135 -7.6772 90.9113
lradius 53.3298 0 0
lwrist 19.5608 0 0
lhand -8.91656 5.29669 0
lfingers 7.12502 0 0
lthumb 17.0217 34.5164 0
rclavicle -1.23646e-013 -1.7306e-015 0
rhumerus -31.1351 43.3051 -107.964
rradius 66.7969 0 0
rwrist -1.36293 0 0
rhand -9.11554 -24.466 0
rfingers 7.12502 0 0
rthumb 16.8338 -773.74 0
820
root 2.14922 16.6579 23.272 3.8181 0.221818 353.414
lfemur -36.6334 0.179203 0.567833
ltibia 19.8837 0 0
lfoot -8.44693 8.44361 0
ltoes 15.9102 0 0
rfemur -1.44252 4.45481 22.5224
rtibia 21.9894 0 0
rfoot -20.65 -9.54029 0
rtoes -23.7696 0 0
lowerback 1.37969 5.85037 5.20607
upperback 0.13233 7.7882 -0.275812
thorax 0.200851 3.90202 -3.09129
lowerneck -5.87441 -1.66256 3.01766
upperneck -0.163231 -2.44668 1.5074
head 0.913813 -1.19039 -0.097194
lclavicle -1.19721e-013 -2.19832e-015 0
lhumerus -51.9404 -8.04643 90.6931
lradius 53.4809 0 0
lwrist 19.6449 0 0
lhand -8.50848 5.27548 0
lfingers 7.12502 0 0
lthumb 17.4121 34.4352 0
rclavicle -1.19721e-013 -2.19832e-015 0
rhumerus -31.5199 42.2365 -106.707
rradius 66.5064 0 0
rwrist -1.25521 0 0
rhand -8.87896 -24.5368 0
rfingers 7.12502 0 0
rthumb 17.0609 -773.784 0
821
root 2.18858 16.6551 23.4057 3.44514 0.548174 353.556
lfemur -36.1388 0.3463 0.145174
ltibia 20.2454 0 0
lfoot -8.45513 7.77092 0
ltoes 15.9919 0 0
rfemur -2.79199 4.07669 22.633
rtibia 22.2988 0 0
rfoot -20.2395 -9.05028 0
rtoes -23.9492 0 0
lowerback 1.6566 5.70292 4.97901
upperback 0.229531 7.57452 -0.308497
thorax 0.134732 3.79535 -2.99173
lowerneck -5.90565 -1.68717 3.00827
upperneck -0.0383176 -2.48663 1.55771
head 0.961689 -1.20617 -0.0824573
lclavicle -1.15796e-013 -2.66605e-015 0
lhumerus -51.5672 -8.41567 90.475
lradius 53.6321 0 0
lwrist 19.729 0 0
lhand -8.1004 5.25428 0
lfingers 7.12502 0 0
lthumb 17.8024 34.354 0
rclavicle -1.15796e-013 -2.66605e-015 0
rhumerus -31.9047 41.1679 -105.45
rradius 66.216 0 0
rwrist -1.1475 0 0
rhand -8.64238 -24.6076 0
rfingers 7.12502 0 0
rthumb 17.288 -773.827 0
822
root 2.22794 16.6523 23.5393 3.07219 0.874529 353.697
lfemur -35.6441 0.513396 -0.277485
ltibia 20.607 0 0
lfoot -8.46333 7.09822 0
ltoes 16.0735 0 0
rfemur -4.14146 3.69858 22.7437
rtibia 22.6082 0 0
rfoot -19.8291 -8.56028 0
rtoes -24.1288 0 0
lowerback 1.93351 5.55547 4.75195
upperback 0.326732 7.36083 -0.341182
thorax 0.068612 3.68867 -2.89216
lowerneck -5.9369 -1.71178 2.99888
upperneck 0.0865958 -2.52659 1.60801
head 1.00957 -1.22194 -0.0677207
lclavicle -1.11871e-013 -3.13378e-015 0
lhumerus -51.194 -8.7849 90.2569
lradius 53.7832 0 0
lwrist 19.8131 0 0
lhand -7.69233 5.23308 0
lfingers 7.12502 0 0
lthumb 18.1928 34.2728 0
rclavicle -1.11871e-013 -3.13378e-015 0
rhumerus -32.2895 40.0994 -104.193
rradius 65.9256 0 0
rwrist -1.03978 0 0
rhand -8.40581 -24.6784 0
rfingers 7.12502 0 0
rthumb 17.5151 -773.871 0
823
root 2.26729 16.6494 23.6729 2.69924 1.20089 353.839
lfemur -35.1494 0.680492 -0.700144
ltibia 20.9687 0 0
lfoot -8.47154 6.42552 0
ltoes 16.1552 0 0
rfemur -5.49093 3.32046 22.8543
rtibia 22.9176 0 0
rfoot -19.4186 -8.07028 0
rtoes -24.3084 0 0
lowerback 2.21042 5.40802 4.52489
upperback 0.423933 7.14715 -0.373866
thorax 0.00249235 3.582 -2.7926
lowerneck -5.96814 -1.73639 2.98949
upperneck 0.211509 -2.56654 1.65831
head 1.05744 -1.23772 -0.052984
lclavicle -1.07946e-013 -3.60151e-015 0
lhumerus -50.8208 -9.15414 90.0388
lradius 53.9344 0 0
lwrist 19.8972 0 0
lhand -7.28425 5.21188 0
lfingers 7.12502 0 0
lthumb 18.5831 34.1916 0
rclavicle -1.07946e-013 -3.60151e-015 0
rhumerus -32.6742 39.0308 -102.936
rradius 65.6352 0 0
rwrist -0.932069 0 0
rhand -8.16923 -24.7491 0
rfingers 7.12502 0 0
rthumb 17.7421 -773.914 0
